<?xml version="1.0" encoding="utf-8"?>
<!-- Generator: Adobe Illustrator 19.0.0, SVG Export Plug-In . SVG Version: 6.00 Build 0)  -->
<svg version="1.1" id="Layer_1" xmlns="http://www.w3.org/2000/svg" xmlns:xlink="http://www.w3.org/1999/xlink" x="0px" y="0px"
	 viewBox="-210 403.9 174 35" style="enable-background:new -210 403.9 174 35;" xml:space="preserve">
<style type="text/css">
	.st0{fill:#FFFFFF;}
</style>
<g id="XMLID_529_">
	<g>
		<path class="st0" d="M-153.2,426.7c0,1.4,0.3,1.8,1.9,1.8v0.8h-6v-0.8c1.6,0,1.9-0.5,1.9-1.8v-11.1c0-1.4-0.3-1.8-1.9-1.8V413h6
			v0.8c-1.6,0-1.9,0.5-1.9,1.8V426.7z M-150.8,420.1l5,7.3c0.6,0.9,0.9,1.1,2.2,1.2v0.8h-3.5l-5.7-8.6l4.4-5.1
			c0.4-0.5,0.6-0.9,0.6-1.1c0-0.5-0.5-0.7-1.3-0.7v-0.8h5v0.8c-1.1,0.2-1.7,0.7-3.2,2.4L-150.8,420.1z"/>
		<path class="st0" d="M-137.2,429.7c-3.2,0-5.5-2.3-5.5-6.1c0-3.8,2.3-6.1,5.4-6.1c3.5,0,5.5,2.7,5.5,6.3
			C-131.7,427.4-134,429.7-137.2,429.7z M-137.2,418.5c-2.4,0-3.1,1.8-3.1,4.7c0,3.6,0.9,5.2,3.2,5.2c2,0,3.1-1.7,3.1-4.8
			C-134,420.1-135.1,418.5-137.2,418.5z"/>
		<path class="st0" d="M-126.3,426.8c0,1.4,0.2,1.7,1.8,1.7v0.8h-5.7v-0.8c1.4-0.1,1.8-0.3,1.8-1.7v-11.4c0-1.7-0.4-2-1.9-2v-0.8
			l3.4-0.7h0.4c0.2,0.5,0.3,1.4,0.3,2.3v12.6H-126.3z"/>
		<path class="st0" d="M-113.9,427.2l0.5,0.8c-1.1,0.9-2.5,1.6-4.2,1.6c-3.4,0-5.4-2.3-5.4-6.2c0-3.9,2.2-6.1,5.1-6.1
			c3,0,4.7,2.1,4.7,5.7v0.6h-7.6c0,3.4,1.2,4.6,3.7,4.6C-116,428.2-114.7,427.8-113.9,427.2z M-120.7,422.5h5.3c0-2.9-0.7-4-2.5-4
			C-119.6,418.5-120.6,419.5-120.7,422.5z"/>
		<path class="st0" d="M-102,419.3c-0.5,0-1-0.1-1.7-0.5c0.8,0.6,1.4,1.4,1.4,2.5c0,1.6-1.1,3.6-5,3.6c-0.9,0.2-1.4,0.7-1.4,1.2
			c0,0.4,0.3,0.6,0.9,0.6h2.2c2.8,0,4.4,0.8,4.4,3.3c0,2.3-2.3,3.8-5.2,3.8c-3.3,0-5-1.3-5-2.7c0-0.9,0.6-1.3,1.2-1.7h1
			c-0.1,0.2-0.3,0.7-0.3,1.2c0,1.3,0.7,2.1,3,2.1c2.5,0,3.3-0.9,3.3-2.2c0-1.4-0.6-1.8-3.7-1.8c-0.8,0-1.7-0.1-2.1-0.1
			c-1-0.1-1.5-1-1.5-1.8c0-0.9,0.9-1.6,2.2-2c-1.7-0.4-2.8-1.8-2.8-3.4c0-2.3,1.7-3.9,4.5-3.9c0.6,0,1.1,0,1.8,0.3
			c0.6,0.2,1.3,0.4,1.8,0.4c0.7,0,1.3-0.3,1.9-0.7l0.8,1.5C-100.8,419.1-101.3,419.3-102,419.3z M-106.7,418.5
			c-1.4,0-2.2,0.8-2.2,2.7c0,1.8,0.8,2.7,2.2,2.7c1.4,0,2.2-0.8,2.2-2.6C-104.5,419.4-105.2,418.5-106.7,418.5z"/>
		<path class="st0" d="M-97.7,421.1c0-1.7-0.3-2-1.7-2v-0.7l3.5-0.9h0.4v11.7c0,3.5-1.4,4.2-3.4,5.1l-0.7-0.9
			c1.4-0.7,1.9-1.8,1.9-4.2C-97.7,429.2-97.7,421.1-97.7,421.1z M-96.8,415.6c-0.8,0-1.5-0.7-1.5-1.5s0.6-1.5,1.5-1.5
			c0.8,0,1.5,0.7,1.5,1.5S-95.9,415.6-96.8,415.6z"/>
		<path class="st0" d="M-87.5,428.6v0.8H-93v-0.8c1.4-0.1,1.7-0.3,1.7-1.7v-5.8c0-1.7-0.3-2-1.7-2v-0.7l3.5-0.9h0.4v9.5
			C-89.1,428.3-89,428.5-87.5,428.6z M-90.4,415.6c-0.8,0-1.5-0.7-1.5-1.5s0.6-1.5,1.5-1.5c0.8,0,1.5,0.7,1.5,1.5
			S-89.6,415.6-90.4,415.6z"/>
		<path class="st0" d="M-71.4,424.3h-5.5l-0.8,2.6c-0.1,0.3-0.1,0.6-0.1,0.8c0,0.7,0.5,0.8,1.7,0.9v0.8h-5.1v-0.8
			c1.1-0.1,1.5-0.5,2-2l4.4-13.5h2.1l4.3,13.4c0.4,1.3,0.8,2,2,2.1v0.8h-5.8v-0.8c1.1,0,1.6-0.3,1.6-1c0-0.2-0.1-0.5-0.1-0.7
			L-71.4,424.3z M-76.5,423.1h4.8l-1.1-3.5c-0.6-2.1-1.1-3.8-1.2-4.5h-0.1c-0.3,0.9-0.6,2.4-1.3,4.5L-76.5,423.1z"/>
		<path class="st0" d="M-55.9,424.3h-5.5l-0.8,2.6c-0.1,0.3-0.1,0.6-0.1,0.8c0,0.7,0.5,0.8,1.7,0.9v0.8h-5.1v-0.8
			c1.1-0.1,1.5-0.5,2-2l4.4-13.5h2.1l4.3,13.4c0.4,1.3,0.8,2,2,2.1v0.8h-5.8v-0.8c1.1,0,1.6-0.3,1.6-1c0-0.2-0.1-0.5-0.1-0.7
			L-55.9,424.3z M-61,423.1h4.8l-1.1-3.5c-0.6-2.1-1.1-3.8-1.2-4.5h-0.1c-0.3,0.9-0.6,2.4-1.3,4.5L-61,423.1z"/>
		<path class="st0" d="M-37.6,417.1c0,1.7-0.8,3-3,3.5v0.1c2.6,0.4,3.8,2.1,3.8,4.2c0,3.2-2.7,4.5-5.7,4.5h-7v-0.8
			c1.6,0,1.9-0.5,1.9-1.8v-11.1c0-1.4-0.3-1.8-1.9-1.8v-0.8h6C-39.3,413-37.6,414.4-37.6,417.1z M-43,414.2h-2.3v6.1h2.4
			c2.3,0,3-1,3-3C-39.9,415-40.7,414.2-43,414.2z M-42.7,421.4h-2.6v6.8h3c2.5,0,3.2-1.1,3.2-3.5S-39.9,421.4-42.7,421.4z"/>
	</g>
	<g>
		<path class="st0" d="M-203,438.3v-3.9h1.8c0.7,0,1.1,0.3,1.1,1c0,0.8-0.5,1.3-1.6,1.4l-0.1-0.6c0.6-0.1,1-0.4,1-0.8
			c0-0.3-0.1-0.4-0.4-0.4h-1.1v3.3H-203z"/>
		<path class="st0" d="M-199.6,438.2v-3.9h1.8c0.8,0,1.2,0.4,1.2,1.1c0,0.5-0.3,0.9-0.9,1.2l1.2,1.7h-0.9l-1.2-1.7v-0.3
			c0.7-0.1,1.1-0.4,1.1-0.8c0-0.3-0.2-0.4-0.5-0.4h-1v3.3h-0.8V438.2z"/>
		<path class="st0" d="M-195.1,434.3v3.9h-0.7v-3.9H-195.1z"/>
		<path class="st0" d="M-194.2,438.1v-0.7c0.4,0.1,0.8,0.2,1.3,0.2c0.6,0,0.9-0.2,0.9-0.6c0-0.3-0.2-0.4-0.6-0.4h-0.7
			c-0.8,0-1.2-0.4-1.2-1.1c0-0.8,0.6-1.2,1.7-1.2c0.4,0,0.9,0.1,1.3,0.2v0.7c-0.4-0.1-0.8-0.2-1.3-0.2c-0.7,0-1,0.2-1,0.6
			c0,0.3,0.2,0.4,0.5,0.4h0.7c0.9,0,1.3,0.4,1.3,1.1c0,0.8-0.5,1.2-1.6,1.2C-193.4,438.3-193.8,438.2-194.2,438.1z"/>
		<path class="st0" d="M-190.7,438.3v-3.9h0.7v1.6h1.9v-1.6h0.7v3.9h-0.7v-1.7h-1.9v1.7H-190.7z"/>
		<path class="st0" d="M-183.9,434.3v0.6h-1.1v3.3h-0.7v-3.3h-1.1v-0.6H-183.9z"/>
		<path class="st0" d="M-182.7,434.3v3.9h-0.7v-3.9H-182.7z"/>
		<path class="st0" d="M-181.9,438.3v-3.9h0.7l2.2,2.8v-2.8h0.7v3.9h-0.7l-2.2-2.9v2.9H-181.9z"/>
		<path class="st0" d="M-174.9,434.3v0.6h-1.9v1h1.8v0.7h-1.8v1h1.9v0.6h-2.6v-3.9L-174.9,434.3L-174.9,434.3z M-177,433.3v0.5h0.6
			v-0.5H-177z M-176,433.3v0.5h0.6v-0.5H-176z"/>
	</g>
	<g id="XMLID_530_">
		<path id="XMLID_535_" class="st0" d="M-189,404.3c0.3,0,0.5,0,0.8,0v8.7c-0.5,0.2-1.1,0.4-1.6,0.6v-9.3
			C-189.5,404.3-189.3,404.3-189,404.3L-189,404.3z M-188.2,415v8.6c-0.5,0.2-1,0.3-1.5,0.5l-0.1,0.1v-8.6l0.2-0.1
			C-189.2,415.3-188.7,415.1-188.2,415L-188.2,415z M-188.2,425.8v6.3h-1.6v-5.8C-189.3,426.1-188.7,426-188.2,425.8L-188.2,425.8z
			 M-184.2,432.1v-7.5c2.1-0.5,4.2-0.9,6-1.1l4.5,7.7c-0.2,0.3-0.4,0.6-0.6,0.9H-184.2L-184.2,432.1z M-202.4,432.1
			c2.3-1.3,5.1-2.7,8.6-4.2v4.2H-202.4L-202.4,432.1z M-184.2,422.3v-8.7h0.2l4.5,7.6C-181.1,421.5-182.6,421.9-184.2,422.3
			L-184.2,422.3z M-204,431.7c2.7-2,6.2-4.1,10.2-5.9v-8.5c-1.2,0.5-2.2,1-3.2,1.5l-7.3,12.4C-204.2,431.4-204.1,431.6-204,431.7
			L-204,431.7z M-195.5,416.3l1.7-2.9v2C-194.4,415.7-194.9,416-195.5,416.3L-195.5,416.3z M-206.4,426.1c-0.3-1.3-0.5-2.6-0.5-4
			c0-8.2,5.5-15.1,13-17.2l-11,18.5c-0.3,0.4-0.5,0.7-0.6,1.1L-206.4,426.1L-206.4,426.1z M-184.2,405c3.1,0.9,5.9,2.6,8,4.8
			c-1.5,0.2-3,0.5-4.7,0.9L-184.2,405L-184.2,405z M-174.2,412.2c-1.5-0.1-3.4,0.1-5.4,0.4l4.7,7.9c1.4-0.1,2.6-0.1,3.7,0
			C-171.5,417.4-172.6,414.6-174.2,412.2L-174.2,412.2z M-171.3,424.1c-0.1,0.7-0.2,1.4-0.4,2.1l-1.5-2.6
			C-172.4,423.6-171.8,423.8-171.3,424.1z"/>
		<path id="XMLID_534_" class="st0" d="M-188,412.2c10.9-4.1,20.6-4.5,21.7-0.9c0.6,1.9-1.5,4.6-5.2,7.3c0-0.2-0.1-0.4-0.1-0.6
			c1.5-1.6,2-3.2,1.5-4.8c-0.9-2.8-10.7-2-19.6,1.7c-8.9,3.6-13.4,6.4-16,9.7C-204.7,420.9-197.5,415.8-188,412.2z"/>
		<path id="XMLID_531_" class="st0" d="M-189.8,423.5c11.9-4.5,22.5-4.9,23.7-1c0.8,2.8-3.5,7.2-10.5,11.1c5.3-3.5,7.3-6,6.3-9
			c-0.9-3-11.6-2.1-21.4,1.8c-9.8,4-14.6,7-17.5,10.5C-208,433-200.1,427.4-189.8,423.5z"/>
	</g>
</g>
</svg>
